<?xml version="1.0" encoding="utf-8"?>
<!-- Generator: Adobe Illustrator 24.0.3, SVG Export Plug-In . SVG Version: 6.00 Build 0)  -->
<svg version="1.1" id="ba7a9654-0da3-49cc-aaef-07a3cc285e9d"
	 xmlns="http://www.w3.org/2000/svg" xmlns:xlink="http://www.w3.org/1999/xlink" x="0px" y="0px" viewBox="0 0 199.9 23.6"
	 style="enable-background:new 0 0 199.9 23.6;" xml:space="preserve">
<g>
	<g>
		<g>
			<g>
				<path d="M171.9,15.3l1,1.4h3l-3.8-5.3h-2.9l1.2,1.8c-2.3,0.3-4.9,0.5-7.3,0.5c3.4-1.8,6.8-4,9.9-6.4h-4.2
					c-0.6,0.4-1.2,0.8-1.9,1.3c-1.6,0.2-3.3,0.3-4.7,0.2c1.1-0.6,2.8-2,4-3.1h0.5c1.6,0,3.5,0,5.1-0.2c1.1-0.1,2.4-0.4,3.4-0.6V2.5
					c-1.2,0.4-2.5,0.6-3.8,0.7c-1.4,0.2-3.4,0.2-4.8,0.2h-10.9v2.4h6.6c-1.5,1.2-3.7,2.8-5.4,3.8c-0.3,0.2-0.6,0.5-0.6,0.9
					c0.1,0.4,0.3,0.7,0.8,0.7c2.1,0,4.1-0.1,6.1-0.3c-2.3,1.3-4.7,2.6-7,3.7c-0.4,0.2-0.5,0.6-0.4,0.9c0,0.3,0.3,0.6,0.6,0.6
					c2.7,0,5.5,0,8.2-0.1v4.1c0,0.6-0.3,0.7-0.7,0.7c-0.6,0-1.6-0.2-2.9-0.6v2.6c1.5,0.3,2.5,0.6,3.7,0.6c1.9,0,2.7-1,2.7-2.8v-4.7
					C168.9,15.7,170.4,15.5,171.9,15.3z"/>
				<polygon points="158.4,17.1 154.8,22.6 157.8,22.6 161.3,17.1 				"/>
				<polygon points="169.7,17 173.4,22.6 176.3,22.6 172.6,17 				"/>
				<path d="M197,2.5V20c0,0.6-0.1,0.7-0.6,0.7c-0.8,0-2-0.3-3.7-0.9v2.7c1.8,0.6,3.1,0.9,4,0.9c2,0,2.8-0.7,2.8-2.9v-18H197z"/>
				<path d="M179.3,5.7h3.5c-1,2.5-2.5,5.5-3.9,8.2h2.7c0.6-1,1.2-2.1,1.8-3.4h4.1c-0.3,1.3-0.7,2.4-1.2,3.4
					c-0.9-0.6-1.9-1.3-2.8-1.7l-1.1,2.1c0.8,0.4,1.8,1.1,2.7,1.7c-1.4,2.2-3.3,4.1-6,6.3l2.8,1c4.9-4.2,7.2-8.5,8.2-14.2
					c0.1-0.8-0.1-1.2-0.9-1.2h-4.8c0.3-0.8,0.7-1.6,1-2.4h5.6V3.2h-11.6V5.7z"/>
				<rect x="192.3" y="5" width="2.5" height="13"/>
			</g>
		</g>
	</g>
	<g>
		<g>
			<path d="M106.3,23.4c-3.1,0-5.9-0.3-8.3-1v-3.3c2.7,0.7,5.4,1.1,8.3,1.1c2,0,3.5-0.2,4.2-0.6c0.8-0.4,1.1-1,1.1-1.9
				c0-0.7-0.3-1.3-0.8-1.7c-0.5-0.3-1.3-0.7-2.5-1l-5.1-1.1c-1.8-0.4-3.2-1-4-1.7c-1-0.9-1.6-2.1-1.6-3.8c0-1.9,0.7-3.3,2.1-4.2
				c1.4-0.9,3.7-1.3,6.9-1.3c3,0,5.5,0.2,7.6,0.7V7c-2.3-0.5-4.8-0.8-7.5-0.8c-2.1,0-3.6,0.2-4.4,0.5c-0.7,0.3-1.1,0.9-1.1,1.7
				c0,0.7,0.3,1.3,0.9,1.7c0.5,0.3,1.3,0.6,2.5,0.9l5,1c1.9,0.4,3.2,1,4.1,1.8c1,0.9,1.5,2.2,1.5,3.8c0,2-0.7,3.5-2.2,4.4
				C111.8,22.9,109.5,23.4,106.3,23.4z"/>
			<path d="M123.7,6.8L118,8V4.8l6.2-1.5c0.8-0.2,1.4-0.3,1.8-0.3c0.9,0,1.3,0.5,1.3,1.4V23h-3.7V6.8z"/>
		</g>
		<g>
			<path d="M140.1,23.4c-1.5,0-3-0.1-4.6-0.3c-1.3-0.2-2.3-0.3-3-0.5v-3.2c1.8,0.5,4.4,0.8,7.6,0.9c2.4,0,4-0.2,4.9-0.7
				c1-0.5,1.5-1.3,1.5-2.5c0-1.2-0.4-2-1.3-2.5c-0.8-0.5-2.3-0.7-4.4-0.7c-1.5,0-3.6,0.1-6.2,0.3c-0.7,0.1-1.3,0-1.5-0.4
				c-0.3-0.3-0.4-0.8-0.3-1.4l1.1-9h15v3.1h-12l-0.6,4.6c1.9-0.2,3.7-0.3,5.5-0.3c2.6,0,4.6,0.4,6,1.2c1.7,1,2.6,2.6,2.6,4.9
				c0,2.4-0.9,4.1-2.8,5.2C145.9,22.9,143.5,23.4,140.1,23.4z"/>
		</g>
	</g>
	<g>
		<g>
			<path id="XMLID_8_" d="M78.5,6.5h-7.5c-7.8,0-8.4,6.3-8.4,8.3c0,1.9,0.7,8.3,8.4,8.3h7.5c7.8,0,8.4-6.3,8.4-8.3
				C87,12.9,86.3,6.5,78.5,6.5z M78.5,19.3h-7.5c-4.2,0-4.6-3.4-4.6-4.5s0.4-4.5,4.6-4.5h7.5c4.2,0,4.6,3.4,4.6,4.5
				S82.7,19.3,78.5,19.3z"/>
			<path d="M61.1,6.9h-2.4c-1,0-1.2,0.2-1.6,0.8c-0.4,0.6-7.3,11.2-7.3,11.2c-0.2,0.3-0.5,0.5-0.7,0.5c-0.3,0-0.5-0.1-0.7-0.5
				c0,0-6.9-10.6-7.3-11.2c-0.4-0.6-0.6-0.8-1.6-0.8h-2.4c-0.6,0-0.8,0.4-0.5,1c0.4,0.5,8.3,12.5,8.3,12.5c1.3,1.9,2.2,2.6,4.3,2.6
				c2.1,0,3-0.8,4.3-2.6c0,0,7.9-12,8.3-12.5C61.9,7.4,61.7,6.9,61.1,6.9z"/>
			<path id="XMLID_7_" d="M29,8c0-0.7,0.3-1,1-1h1.8c0.7,0,1,0.3,1,1v14.1c0,0.7-0.3,1-1,1H30c-0.7,0-1-0.3-1-1V8z"/>
			<path id="XMLID_6_" d="M28.8,3.6c-0.6-0.6-0.6-1.1,0-1.7l1.3-1.3c0.6-0.6,1.1-0.6,1.7,0L33.1,2c0.6,0.6,0.6,1.1,0,1.7l-1.3,1.3
				c-0.6,0.6-1.1,0.6-1.7,0L28.8,3.6z"/>
			<path d="M25,6.9h-2.4c-1,0-1.2,0.2-1.6,0.8c-0.4,0.6-7.3,11.2-7.3,11.2c-0.2,0.3-0.5,0.5-0.7,0.5c-0.3,0-0.5-0.1-0.7-0.5
				c0,0-6.9-10.6-7.3-11.2C4.4,7.1,4.2,6.9,3.2,6.9H0.8c-0.6,0-0.8,0.4-0.5,1c0.3,0.5,8.3,12.5,8.3,12.5c1.3,1.9,2.2,2.6,4.3,2.6
				s3-0.8,4.3-2.6c0,0,7.9-12,8.3-12.5C25.8,7.4,25.6,6.9,25,6.9z"/>
		</g>
	</g>
</g>
</svg>
