<?xml version="1.0" encoding="utf-8"?>
<!-- Generator: Adobe Illustrator 24.0.1, SVG Export Plug-In . SVG Version: 6.00 Build 0)  -->
<svg version="1.1" id="图层_1" xmlns="http://www.w3.org/2000/svg" xmlns:xlink="http://www.w3.org/1999/xlink" x="0px" y="0px"
	 viewBox="0 0 288 120" style="enable-background:new 0 0 288 120;" xml:space="preserve">
<style type="text/css">
	.st0{fill:#231815;}
</style>
<path class="st0" d="M42.1,117.67V52.59H23.45v3.3h5.5v45.01c0,4.48-2.02,6.94-5.21,6.94c-2.89,0-4.05-1.59-4.05-5.35v-56.7V17.08
	c0-3.47,2.09-5.06,4.55-5.06c4.76,0.2,4.53,4.29,4.49,10.34l-0.15,21.8H39.8l0.04-23.71C39.86,10.12,37.02,1.6,24.05,0.76
	c-0.29-0.01-0.59-0.02-0.89-0.02c-11.28,0-17.94,6.51-17.94,17.21v27.84v56.41c0,10.41,6.07,17.07,14.9,17.07
	c6.08,0,10.27-3.33,13.16-10.13h0.43l2.89,8.53H42.1z M211.28,116.25h3.23V4.95h-3.23V1.96h33.02v11.43h-15.62v38.62h13.31v11.57
	h-13.31v44.24h15.91v11.43h-11.67h-18.41h-3.23V116.25z M185.54,116.27h3.66V4.95h-3.66V1.96h21.64v2.99h-3.66v111.32h3.66v2.99
	h-21.64V116.27z M282.78,119.24v-11.43h-15.91V1.96h-14.17v117.28H282.78z M165.48,49.69c0,4.19-1.59,5.79-5.5,5.79h-2.89V13.53
	h3.47c3.33,0,4.92,1.59,4.92,4.92V49.69z M180.1,115.97c-0.81-3.67-1.02-7.47-1.02-11.6l-0.29-20.25
	c-0.29-14.9-1.45-22.56-8.39-24.44v-0.29c6.51-2.31,9.4-6.07,9.4-12.58V19.9c0-13.02-5.62-17.94-18.23-17.94h-21.64v2.99h2.99
	v111.02h-1.76v3.29h18.09v-3.29h-2.17V67.05h2.46c3.9,0,4.77,2.6,4.92,9.11l0.43,27.77c0.12,4.49,0.36,8.44,0.97,12.04h-1.4v3.29
	h18.1v-3.29H180.1z M118.33,102.32c0,4.1-1.59,5.27-5.93,5.27h-2.46V64.23h3.62c3.18,0,4.77,1.61,4.77,4.69V102.32z M118.33,48.11
	c0,3.08-1.74,4.69-4.92,4.69h-3.47V13.68h3.47c3.18,0,4.92,1.61,4.92,4.54V48.11z M132.65,102.02V72.87
	c0-8.79-3.62-13.62-11.43-14.94v-0.29c7.81-1.61,11.43-6.59,11.43-15.68V19.4c0-11.43-5.5-17.43-15.91-17.43H93.97v2.99h1.8v111.22
	h-1.8v2.99h20.31C125.82,119.08,132.65,114.19,132.65,102.02z M72.33,82.82H63.8l4.19-56.31h0.43L72.33,82.82z M88.55,116.27
	L77.83,1.96h-17.5L48.47,116.27h-1.82v2.99h16.31v-2.99H61.3l1.63-22.18H73.2l1.09,22.18h-4.34v2.99h20.47v-2.99H88.55z"/>
</svg>
